<?xml version="1.0" standalone="no"?>
<!DOCTYPE svg PUBLIC "-//W3C//DTD SVG 20010904//EN"
 "http://www.w3.org/TR/2001/REC-SVG-20010904/DTD/svg10.dtd">
<svg version="1.0" xmlns="http://www.w3.org/2000/svg"
 width="1080.000000pt" height="1080.000000pt" viewBox="0 0 1080.000000 1080.000000"
 preserveAspectRatio="xMidYMid meet">
<metadata>
Created by potrace 1.11, written by Peter Selinger 2001-2013
</metadata>
<g transform="translate(0.000000,1080.000000) scale(0.100000,-0.100000)"
fill="#000000" stroke="none">
<path d="M6985 8836 c-22 -11 -42 -23 -45 -26 -3 -3 -35 -20 -72 -38 -37 -18
-70 -37 -73 -42 -4 -6 -10 -8 -15 -5 -4 3 -13 -2 -20 -10 -7 -8 -17 -15 -22
-15 -21 0 -441 -253 -626 -377 -52 -35 -98 -63 -102 -63 -5 0 -10 -4 -12 -8
-1 -4 -41 -34 -88 -67 -75 -52 -258 -188 -300 -222 -8 -7 -43 -34 -78 -62 -96
-76 -253 -207 -318 -266 -89 -80 -176 -158 -213 -192 -25 -24 -50 -43 -54 -43
-5 0 -6 -3 -4 -7 3 -5 -10 -19 -29 -33 -18 -14 -34 -31 -34 -39 0 -8 -2 -12
-6 -9 -4 4 -214 -198 -214 -206 0 -1 -36 -39 -80 -85 -44 -45 -80 -85 -80 -87
0 -3 -20 -25 -45 -50 -25 -24 -45 -47 -45 -50 0 -3 -13 -19 -30 -34 -16 -15
-30 -33 -30 -39 0 -6 -4 -11 -9 -11 -6 0 -18 -13 -27 -29 -10 -17 -21 -28 -26
-25 -4 3 -8 0 -8 -5 0 -6 -8 -19 -17 -29 -10 -10 -29 -32 -43 -50 -25 -34 -47
-61 -78 -97 -10 -11 -28 -36 -42 -55 -13 -19 -32 -41 -42 -48 -10 -7 -16 -17
-13 -22 3 -5 -5 -16 -17 -24 -12 -9 -18 -16 -13 -16 6 0 6 -3 0 -8 -12 -8 -54
-60 -75 -92 -8 -13 -23 -30 -32 -39 -10 -8 -18 -19 -18 -23 0 -7 -96 -144
-110 -158 -3 -3 -11 -17 -19 -32 -8 -16 -18 -28 -23 -28 -4 0 -8 -4 -8 -10 0
-5 -20 -38 -45 -73 -25 -36 -45 -69 -45 -75 0 -6 -4 -12 -8 -14 -11 -4 -102
-146 -102 -158 0 -5 -6 -15 -14 -23 -15 -15 -86 -130 -139 -227 -17 -30 -34
-56 -39 -58 -4 -2 -8 -9 -8 -16 0 -8 -9 -25 -21 -40 -11 -14 -18 -26 -15 -26
3 0 -14 -33 -37 -72 -23 -40 -73 -136 -112 -213 -38 -77 -73 -141 -77 -143 -5
-2 -8 -8 -8 -13 0 -5 -27 -65 -59 -132 -67 -137 -85 -179 -83 -189 1 -5 -3 -8
-9 -8 -5 0 -7 -4 -4 -10 3 -5 2 -10 -3 -10 -6 0 -12 -10 -16 -23 -3 -13 -18
-50 -32 -83 -15 -32 -27 -62 -26 -66 1 -5 -3 -8 -10 -8 -6 0 -9 -3 -6 -6 4 -3
-13 -50 -37 -104 -24 -54 -41 -101 -37 -104 3 -3 -1 -6 -8 -6 -7 0 -10 -3 -7
-7 4 -3 3 -11 -1 -17 -5 -6 -19 -40 -32 -76 -13 -36 -27 -70 -32 -76 -4 -6 -5
-14 -1 -17 3 -4 1 -7 -6 -7 -7 0 -9 -5 -6 -10 3 -6 1 -10 -5 -10 -6 0 -9 -4
-6 -8 3 -5 -11 -47 -30 -95 -19 -48 -36 -95 -37 -104 -2 -10 -11 -35 -20 -57
-9 -21 -17 -44 -17 -51 0 -6 -3 -15 -7 -19 -4 -3 -8 -13 -10 -21 -4 -21 -9
-37 -17 -60 -5 -11 -12 -32 -18 -47 -6 -15 -10 -31 -11 -35 0 -4 -6 -22 -13
-39 -7 -17 -10 -34 -7 -38 4 -3 0 -6 -7 -6 -7 0 -11 -3 -7 -6 3 -4 0 -23 -8
-43 -20 -53 -74 -232 -81 -269 -4 -18 -9 -32 -13 -32 -4 0 -8 -8 -9 -17 -2
-23 -6 -38 -21 -93 -8 -25 -14 -50 -15 -57 -1 -7 -5 -16 -9 -19 -4 -4 -7 -18
-7 -30 0 -13 -4 -25 -9 -28 -5 -4 -8 -14 -7 -24 2 -9 -3 -32 -11 -49 -7 -18
-10 -33 -7 -33 4 0 1 -7 -6 -15 -7 -8 -10 -15 -7 -15 3 0 1 -15 -4 -32 -6 -18
-12 -42 -15 -53 -4 -22 -42 -171 -48 -195 -3 -8 -8 -31 -11 -50 -6 -29 0 -22
31 35 20 39 40 72 45 75 4 3 11 18 14 33 4 15 10 27 14 27 4 0 13 16 21 35 8
19 17 35 22 35 4 0 8 4 8 9 0 6 31 62 69 125 38 64 67 116 65 116 -3 0 0 6 6
13 6 6 54 80 106 162 111 177 105 167 149 230 19 27 35 56 35 62 0 7 4 13 8
13 5 0 24 24 42 52 19 29 38 56 43 59 5 4 6 13 2 20 -5 8 -5 11 0 7 4 -4 27
20 51 55 24 34 48 67 54 74 5 7 10 16 10 22 0 5 4 11 8 13 5 2 39 46 77 98 38
52 112 151 165 218 52 68 105 138 117 155 12 17 26 33 30 36 5 3 21 24 38 46
16 22 35 46 42 53 6 7 29 34 50 60 21 26 40 49 43 52 3 3 30 34 60 70 30 35
62 72 70 80 8 9 49 54 90 100 41 45 95 104 119 129 101 108 163 171 166 171 8
0 89 86 87 93 -1 4 2 7 6 7 4 0 26 16 48 36 21 20 79 73 128 118 49 44 101 93
116 109 15 15 30 27 33 27 3 0 19 12 34 26 15 14 50 45 77 68 27 22 65 56 85
73 20 18 39 33 42 33 4 0 22 14 40 31 19 18 90 75 159 127 69 53 127 99 130
102 3 3 32 25 65 49 33 25 63 49 67 55 4 6 8 7 8 3 0 -5 13 2 29 15 15 12 38
30 51 38 12 8 28 20 34 25 6 6 58 42 116 80 58 39 110 75 117 82 7 6 22 15 33
18 11 3 20 11 20 16 0 5 6 9 14 9 8 0 16 3 18 8 2 6 102 71 180 117 9 6 63 38
119 73 56 34 106 62 111 62 4 0 8 4 8 9 0 5 8 11 18 14 9 3 49 24 87 47 39 23
78 44 88 47 9 3 17 9 17 14 0 5 4 9 9 9 5 0 41 18 79 40 140 79 321 173 557
290 301 148 373 180 388 174 15 -6 61 -80 211 -334 163 -278 338 -620 437
-855 56 -133 76 -185 71 -189 -3 -4 1 -6 8 -6 7 0 10 -3 7 -7 -4 -3 -2 -11 3
-18 5 -6 11 -20 13 -31 1 -10 6 -24 9 -30 10 -16 145 -381 162 -439 2 -5 8
-23 14 -38 7 -16 12 -34 12 -41 0 -7 3 -16 8 -20 4 -4 8 -12 8 -17 1 -5 2 -10
4 -11 1 -2 3 -10 5 -18 4 -18 53 -169 62 -190 3 -8 7 -19 8 -25 2 -5 13 -44
26 -85 13 -41 24 -77 24 -80 0 -3 4 -11 8 -17 5 -7 6 -13 2 -13 -3 0 1 -13 10
-30 9 -16 13 -30 11 -30 -3 0 4 -26 15 -57 11 -32 22 -67 24 -78 2 -11 10 -41
18 -67 8 -27 13 -48 10 -48 -3 0 -1 -6 5 -12 5 -7 13 -29 18 -48 10 -45 8 -38
24 -90 18 -60 18 -61 25 -94 3 -16 11 -38 16 -48 6 -11 8 -22 5 -25 -3 -3 1
-18 10 -34 8 -16 12 -29 9 -29 -3 0 -1 -8 4 -17 5 -10 11 -32 14 -49 3 -17 10
-40 16 -51 5 -11 8 -22 6 -25 -2 -2 2 -24 9 -48 8 -25 14 -48 15 -52 1 -11 -2
2 36 -143 18 -71 31 -133 29 -137 -3 -4 1 -8 9 -8 10 0 13 10 12 32 -2 18 -6
76 -10 128 -4 52 -8 118 -10 145 -4 59 -16 184 -30 315 -4 36 -8 83 -10 105
-1 22 -6 65 -9 95 -14 111 -17 136 -21 180 -3 25 -7 59 -9 75 -3 17 -8 53 -11
80 -4 28 -8 61 -11 74 -2 13 -6 45 -9 70 -13 99 -16 115 -20 135 -4 20 -12 68
-20 129 -13 93 -16 114 -20 127 -2 8 -7 33 -10 55 -4 22 -9 49 -11 60 -4 22
-12 70 -18 113 -3 15 -10 52 -16 82 -20 95 -27 132 -34 173 -2 12 -16 76 -30
142 -15 66 -29 129 -31 140 -2 11 -13 61 -25 110 -12 50 -23 99 -26 109 -2 10
-8 33 -13 50 -6 17 -12 44 -15 59 -3 15 -12 51 -20 80 -19 66 -57 209 -60 222
-1 6 -5 15 -8 21 -4 6 -9 21 -12 35 -9 46 -15 64 -37 134 -12 39 -24 75 -25
80 -5 22 -53 173 -70 220 -28 80 -52 148 -60 170 -4 11 -8 25 -10 30 -6 24
-98 262 -110 288 -8 15 -12 27 -9 27 3 0 0 10 -7 23 -7 12 -13 24 -13 27 -1
10 -67 166 -133 315 -37 83 -66 153 -64 158 1 4 -3 7 -8 7 -6 0 -10 5 -10 10
0 15 -123 264 -135 272 -5 4 -7 8 -2 8 4 0 -4 18 -18 40 -14 22 -25 42 -25 46
0 5 -107 201 -142 259 -10 17 -23 42 -29 58 -6 15 -15 27 -20 27 -5 0 -9 4 -9
10 0 5 -16 34 -35 64 -19 30 -35 59 -35 65 0 5 -4 11 -8 13 -4 2 -25 32 -47
68 -41 69 -64 101 -74 99 -3 -1 -24 -11 -46 -23z"/>
<path d="M7115 5972 c-16 -9 -32 -20 -33 -25 -2 -4 -7 -5 -12 -2 -4 3 -13 -2
-20 -10 -7 -8 -17 -15 -22 -15 -5 0 -52 -25 -104 -55 -53 -30 -100 -55 -105
-55 -5 0 -9 -4 -9 -9 0 -5 -9 -13 -21 -16 -26 -8 -123 -67 -127 -77 -2 -5 -8
-8 -14 -8 -6 0 -26 -11 -43 -25 -18 -13 -35 -21 -39 -18 -3 4 -6 1 -6 -5 0 -7
-7 -12 -15 -12 -8 0 -15 -4 -15 -10 0 -5 -4 -10 -9 -10 -12 0 -194 -120 -203
-134 -4 -6 -8 -7 -8 -3 0 9 -73 -43 -78 -55 -2 -5 -10 -8 -18 -8 -8 0 -14 -4
-14 -10 0 -5 -6 -10 -14 -10 -8 0 -16 -4 -18 -8 -1 -5 -25 -23 -53 -42 -27
-19 -59 -42 -69 -52 -11 -10 -23 -18 -27 -18 -4 0 -14 -6 -21 -12 -23 -21 -97
-78 -101 -78 -5 0 -56 -42 -88 -72 -11 -10 -22 -19 -26 -20 -8 -3 -16 -9 -88
-68 -23 -19 -51 -42 -61 -50 -57 -45 -131 -108 -149 -125 -11 -11 -56 -51
-100 -90 -93 -80 -467 -454 -570 -568 -38 -43 -83 -93 -100 -110 -16 -18 -50
-57 -75 -87 -25 -30 -52 -62 -60 -71 -16 -17 -35 -39 -95 -114 -22 -28 -44
-55 -50 -62 -5 -6 -20 -24 -32 -40 -76 -100 -113 -149 -120 -158 -19 -24 -49
-64 -63 -85 -8 -12 -19 -28 -25 -34 -24 -27 -66 -86 -61 -86 4 0 -2 -9 -11
-19 -29 -32 -39 -45 -46 -63 -3 -10 -11 -18 -17 -18 -5 0 -10 -6 -10 -13 0 -7
-13 -28 -30 -47 -16 -19 -29 -38 -30 -42 0 -11 -87 -144 -105 -162 -9 -8 -16
-19 -15 -23 0 -4 -5 -15 -12 -24 -7 -8 -14 -22 -16 -30 -2 -8 -7 -15 -12 -17
-5 -2 -19 -24 -31 -50 -13 -26 -25 -49 -28 -52 -8 -7 -61 -89 -61 -94 0 -2
-20 -39 -45 -80 -25 -42 -45 -81 -45 -86 0 -6 -4 -10 -10 -10 -5 0 -10 -5 -10
-11 0 -6 -15 -37 -34 -69 -19 -32 -32 -61 -29 -64 4 -3 1 -6 -5 -6 -7 0 -12
-7 -12 -15 0 -8 -4 -15 -10 -15 -5 0 -9 -3 -8 -8 4 -11 -26 -72 -34 -72 -5 0
-8 -9 -8 -19 0 -11 -3 -21 -7 -23 -5 -1 -21 -31 -37 -65 -16 -35 -34 -63 -40
-63 -5 0 -7 -3 -3 -6 3 -3 -3 -21 -14 -40 -10 -19 -16 -34 -13 -34 7 0 17 11
159 166 97 107 550 562 680 684 64 60 223 205 289 265 58 52 111 98 160 140
33 28 64 55 70 60 6 6 52 44 101 85 50 41 92 77 95 80 3 3 25 21 50 40 25 19
47 37 50 40 44 46 548 410 568 410 6 0 12 3 14 8 3 6 80 57 239 157 9 5 36 21
60 34 24 13 47 29 51 35 4 6 8 7 8 2 0 -5 8 -2 18 6 15 14 44 30 202 116 99
54 444 222 456 222 2 0 27 11 56 24 214 97 495 199 773 282 6 2 35 10 65 18
30 8 87 23 127 34 40 11 75 17 77 14 3 -3 8 2 12 11 5 15 -22 70 -109 227 -11
19 -40 73 -65 120 -25 47 -50 87 -54 88 -4 2 -8 12 -8 23 0 10 -3 19 -8 19 -4
0 -14 15 -21 33 -8 17 -29 57 -46 87 -18 30 -54 96 -80 145 -27 50 -56 104
-65 120 -9 17 -36 65 -59 108 -24 42 -48 77 -54 77 -7 0 -25 -8 -42 -18z"/>
<path d="M7929 4265 c-3 -2 -14 -6 -25 -8 -10 -2 -26 -6 -34 -10 -8 -3 -24 -8
-35 -13 -11 -4 -29 -9 -39 -11 -11 -2 -25 -8 -33 -14 -7 -6 -13 -9 -13 -5 0 5
-41 -8 -105 -34 -11 -4 -47 -18 -80 -30 -33 -12 -71 -27 -85 -33 -14 -6 -28
-10 -32 -9 -5 1 -8 -3 -8 -10 0 -6 -3 -9 -6 -5 -4 3 -25 -3 -48 -15 -22 -11
-43 -21 -46 -20 -3 0 -23 -8 -45 -17 -22 -10 -60 -26 -85 -36 -25 -11 -48 -23
-51 -28 -3 -5 -9 -8 -13 -7 -6 2 -94 -36 -136 -59 -18 -10 -37 -19 -132 -68
-40 -20 -75 -36 -77 -34 -2 1 -7 -1 -10 -6 -7 -9 -167 -103 -176 -103 -4 0
-21 -11 -39 -25 -18 -14 -36 -25 -39 -25 -5 0 -216 -132 -242 -152 -5 -4 -66
-48 -135 -97 -69 -49 -158 -115 -198 -148 -40 -32 -87 -69 -104 -83 -18 -14
-40 -33 -50 -42 -10 -10 -18 -15 -18 -12 0 3 -18 -13 -40 -36 -22 -23 -40 -39
-40 -36 0 3 -30 -23 -67 -57 -36 -34 -87 -81 -112 -105 -78 -72 -169 -162
-163 -162 2 0 -12 -13 -33 -30 -21 -16 -36 -30 -33 -30 3 0 -26 -32 -63 -71
-38 -39 -69 -73 -69 -76 0 -3 -11 -15 -24 -27 -33 -30 -240 -276 -311 -371
-33 -43 -70 -90 -82 -103 -40 -44 -13 -43 41 0 29 24 65 52 80 63 15 11 57 42
93 69 36 27 129 93 207 147 77 54 146 102 151 106 53 43 438 280 520 321 17 9
32 18 35 21 5 6 44 27 265 141 111 57 447 209 475 215 8 2 17 4 20 5 3 1 8 2
13 1 4 0 7 4 7 10 0 5 5 7 10 4 6 -3 10 -2 10 3 0 5 6 9 13 9 6 1 53 17 104
36 51 19 95 32 98 29 3 -3 5 1 5 8 0 7 3 11 6 7 4 -3 22 0 41 8 20 8 44 15 54
15 11 0 19 4 19 8 0 5 6 9 13 9 6 0 53 12 103 27 50 15 102 29 115 32 39 9 54
12 54 14 0 1 11 4 25 6 14 3 41 9 60 14 40 11 214 45 280 55 25 4 52 9 60 10
8 2 35 6 60 9 25 3 54 8 66 10 11 2 54 7 96 10 41 4 86 9 99 11 13 3 57 5 97
6 67 1 72 2 72 22 -1 12 -8 40 -16 62 -8 22 -17 48 -19 57 -2 9 -9 26 -15 37
-6 12 -9 21 -6 21 2 0 -6 28 -18 63 -13 34 -24 67 -26 72 -4 15 -5 19 -60 180
-28 83 -52 155 -53 160 -13 48 -42 132 -50 143 -10 13 -20 15 -28 7z"/>
</g>
</svg>
